<svg width="26" height="27" fill="none" xmlns="http://www.w3.org/2000/svg"><path d="M17.143 21.321v-2.678a.522.522 0 00-.15-.385.522.522 0 00-.386-.15H15V9.535a.521.521 0 00-.15-.385.521.521 0 00-.386-.151H9.107a.521.521 0 00-.385.15c-.1.101-.15.23-.15.386v2.678c0 .156.05.285.15.385.1.1.229.151.385.151h1.607v5.357H9.107a.522.522 0 00-.385.15c-.1.101-.15.23-.15.386v2.678c0 .157.05.285.15.385.1.1.229.151.385.151h7.5c.156 0 .285-.05.385-.15.1-.101.15-.23.15-.386zM15 6.321V3.643a.521.521 0 00-.15-.385.521.521 0 00-.386-.15H11.25a.521.521 0 00-.385.15c-.1.1-.15.229-.15.385V6.32c0 .157.05.285.15.385.1.1.229.151.385.151h3.214c.156 0 .285-.05.385-.15.1-.101.151-.23.151-.386zm8.99.52c1.15 1.964 1.724 4.112 1.724 6.445 0 2.332-.574 4.486-1.724 6.462a12.8 12.8 0 01-4.688 4.67c-1.964 1.15-4.112 1.725-6.445 1.725-2.332 0-4.486-.575-6.462-1.724a12.838 12.838 0 01-4.67-4.671C.574 17.772 0 15.618 0 13.286c0-2.333.575-4.481 1.724-6.446a12.8 12.8 0 014.671-4.687c1.976-1.15 4.13-1.724 6.462-1.724 2.333 0 4.481.574 6.445 1.724A12.761 12.761 0 0123.99 6.84z" fill="#fff"/></svg>