<svg width="99" height="19" fill="none" xmlns="http://www.w3.org/2000/svg"><path d="M8.48 1.2c2.208 0 3.912.392 5.112 1.176 1.216.768 1.824 1.832 1.824 3.192 0 .896-.28 1.672-.84 2.328-.56.656-1.328 1.136-2.304 1.44v.12c1.152.272 2.064.76 2.736 1.464.672.704 1.008 1.528 1.008 2.472 0 .928-.288 1.736-.864 2.424-.56.688-1.384 1.224-2.472 1.608-1.072.384-2.36.576-3.864.576H.992V1.2H8.48zm-.096 7.248c.688 0 1.208-.208 1.56-.624.352-.416.528-1.024.528-1.824s-.192-1.408-.576-1.824c-.368-.416-.904-.624-1.608-.624h-2.16v4.896h2.256zm-.12 7.2c.816 0 1.44-.208 1.872-.624.432-.432.648-1.048.648-1.848s-.216-1.416-.648-1.848c-.432-.432-1.064-.648-1.896-.648H6.128v4.968h2.136zM24.37 18.24c-1.296 0-2.448-.256-3.456-.768a5.726 5.726 0 01-2.328-2.16c-.544-.928-.816-2.008-.816-3.24 0-1.232.28-2.328.84-3.288a5.915 5.915 0 012.376-2.232c1.024-.528 2.176-.792 3.456-.792 1.264 0 2.376.264 3.336.792a5.554 5.554 0 012.28 2.184c.544.944.824 2.024.84 3.24 0 .32-.016.56-.048.72h-8.52c.208 2.208 1.12 3.312 2.736 3.312.624 0 1.168-.152 1.632-.456.464-.304.808-.736 1.032-1.296h2.52c-.224 1.152-.856 2.104-1.896 2.856-1.04.752-2.368 1.128-3.984 1.128zm2.016-6.984c-.16-2.352-.84-3.528-2.04-3.528-.576 0-1.04.288-1.392.864-.336.576-.544 1.384-.624 2.424v.24h4.056zm5.347-2.976V6h2.04v-.912c0-1.52.44-2.704 1.32-3.552C35.989.672 37.197.24 38.717.24c1.376 0 2.48.352 3.312 1.056C42.877 2 43.3 2.944 43.3 4.128h-2.376v-.144c0-.496-.208-.896-.624-1.2-.4-.304-.88-.456-1.44-.456-.464 0-.872.128-1.224.384-.336.24-.504.608-.504 1.104 0 .224.024.424.072.6.064.176.128.344.192.504.064.144.104.24.12.288.144.288.256.552.336.792h4.08v2.28h-3.864c.176.528.264 1.144.264 1.848V18h-4.56V8.28h-2.04zm14.408 9.96c-1.264 0-2.256-.288-2.976-.864-.704-.592-1.056-1.384-1.056-2.376 0-2.16 1.72-3.376 5.16-3.648 1.024-.08 1.752-.264 2.184-.552.448-.304.672-.728.672-1.272 0-.512-.168-.896-.504-1.152-.336-.256-.776-.384-1.32-.384-.656 0-1.232.208-1.728.624-.48.416-.776.968-.888 1.656h-2.352c.16-1.376.76-2.472 1.8-3.288 1.056-.816 2.368-1.224 3.936-1.224 1.056 0 1.992.208 2.808.624a4.37 4.37 0 011.896 1.752c.464.752.696 1.64.696 2.664v4.968h1.152V18h-5.28v-1.776c-.88 1.344-2.28 2.016-4.2 2.016zm1.632-2.232c.384 0 .76-.128 1.128-.384.368-.272.672-.648.912-1.128.24-.48.36-1.024.36-1.632v-1.08c-.144.144-.376.288-.696.432a6.125 6.125 0 01-.96.312c-.64.144-1.096.376-1.368.696-.256.32-.384.76-.384 1.32 0 .48.088.848.264 1.104.192.24.44.36.744.36zM62.407 1.2h5.232L73.663 18h-5.616l-1.416-4.104h-5.856L59.383 18h-3l6.024-16.8zm3.504 10.368L63.8 5.28h-.192l-2.112 6.288h4.416zM79.907 6v1.704c.352-.64.816-1.12 1.392-1.44.576-.336 1.248-.504 2.016-.504 1.216 0 2.176.4 2.88 1.2.72.784 1.08 1.936 1.08 3.456v.672h-4.512v-.528c0-1.28-.392-1.92-1.176-1.92-.464 0-.832.264-1.104.792-.256.528-.384 1.216-.384 2.064V18h-4.56V6h4.368zm14.647 12.24c-3.008 0-4.512-1.36-4.512-4.08V8.28h-2.28V6h1.416c.368 0 .648-.096.84-.288.192-.208.288-.496.288-.864V3.12h4.296V6h3.48v2.28h-3.48v5.64c0 .624.12 1.088.36 1.392.256.304.656.456 1.2.456.4 0 1.04-.088 1.92-.264v2.256c-.416.16-.968.28-1.656.36-.672.08-1.296.12-1.872.12z" fill="#fff"/></svg>