<svg width="834" height="156" fill="none" xmlns="http://www.w3.org/2000/svg"><path d="M96.56 74.36v-3.3s24.42-7.48 24.42-29.26v-.22C120.98 16.06 97.66 0 67.08 0H.2v154h75.24c30.58 0 53.9-18.26 53.9-43.78V110c0-29.26-32.78-35.64-32.78-35.64zM29.68 27.28h34.98c14.08 0 26.62 7.26 26.62 19.14S78.74 62.7 64.66 62.7H29.68V27.28zm70.18 80.52c0 11.88-12.76 19.14-26.84 19.14H29.68V89.76h43.34c14.08 0 26.84 6.16 26.84 18.04zm149.987-10.34c-.22-2.64-.66-5.28-1.1-7.92-4.62-24.2-22.44-42.24-52.36-42.24-36.74 0-53.24 24.2-53.24 54.12 0 29.92 16.06 54.34 53.24 54.34 33.44 0 52.36-18.7 53.46-40.92h-29.7c-1.76 9.24-9.02 13.64-24.2 13.64-15.4 0-22-12.1-23.32-22.88h77.22v-8.14zm-75.24-7.92c2.86-7.26 9.02-14.96 21.78-14.96 11.88 0 18.48 7.7 21.56 14.96h-43.34zm151.961-55h15.4V7.48h-25.52c-16.5 0-29.7 13.2-29.7 29.48v11.88h-25.52v27.28s25.52 7.26 25.52 34.98v43.12h29.48V111.1c0-24.2-14.74-35.86-14.74-35.86v-3.08l6.16 3.96h34.32V48.84h-25.52v-4.4c0-5.72 4.4-9.9 10.12-9.9zm100.836 14.3V55l3.08 3.96h-3.08s-15.18-11.66-27.28-11.66c-25.52 0-46.64 17.6-46.64 54.12 0 35.42 20.24 54.34 46.42 54.34 16.94 0 24.2-17.82 24.2-17.82h3.3l5.06 16.06h24.2V48.84h-29.26zm0 58.52c0 7.48-3.74 21.12-18.48 21.12-13.2 0-26.18-7.04-26.18-27.06 0-23.1 15.84-26.84 26.4-26.84 10.12 0 18.26 6.16 18.26 6.16v26.62zM561.085.22h-25.52l-66.44 154h32.34l9.24-21.78h75.02l9.46 21.78h32.56l-66.66-154zm-38.28 104.94l23.98-55.88h3.08l24.2 55.88h-51.26zm267.858-29.04V48.84h-34.32l-6.16 3.96v-3.08s14.96-8.8 14.96-33h-29.7c0 33.66-25.52 32.12-25.52 32.12h-12.1c-14.74 0-24.86 16.06-24.86 16.06h-3.3l-5.06-16.06h-24.42V154h29.48V95.04c0-7.7 8.14-18.92 28.16-18.92h37.62v48.4c0 16.28 11 29.7 27.28 29.7h27.94v-27.28h-15.18c-5.72 0-10.34-4.62-10.34-10.34V76.12h25.52zm43.217 78.1V129.8h-29.92v24.42h29.92z" fill="#fff"/></svg>